<mxfile host="app.diagrams.net" modified="2024-02-20T18:32:00.440Z" agent="Mozilla/5.0 (Windows NT 10.0; Win64; x64) AppleWebKit/537.36 (KHTML, like Gecko) Chrome/121.0.0.0 Safari/537.36" etag="6d8zkTvKHbepGHga1-QR" version="23.1.5" type="github">
  <diagram name="Page-1" id="2c0d36ab-eaac-3732-788b-9136903baeff">
    <mxGraphModel dx="2120" dy="1329" grid="1" gridSize="10" guides="1" tooltips="1" connect="1" arrows="1" fold="1" page="1" pageScale="1.5" pageWidth="1169" pageHeight="827" background="none" math="0" shadow="0">
      <root>
        <mxCell id="0" />
        <mxCell id="1" parent="0" />
        <mxCell id="2" value="Home" style="rounded=1;fillColor=#23445D;gradientColor=none;strokeColor=none;fontColor=#FFFFFF;fontStyle=1;fontFamily=Tahoma;fontSize=14" parent="1" vertex="1">
          <mxGeometry x="757" y="185.5" width="190" height="80" as="geometry" />
        </mxCell>
        <mxCell id="4" value="Settings" style="rounded=1;fillColor=#23445D;gradientColor=none;strokeColor=none;fontColor=#FFFFFF;fontStyle=1;fontFamily=Tahoma;fontSize=14" parent="1" vertex="1">
          <mxGeometry x="1259.9999999999998" y="335.5" width="190" height="80" as="geometry" />
        </mxCell>
        <mxCell id="9" value="" style="edgeStyle=elbowEdgeStyle;elbow=vertical;strokeWidth=2;rounded=0" parent="1" source="2" target="4" edge="1">
          <mxGeometry x="337" y="215.5" width="100" height="100" as="geometry">
            <mxPoint x="337" y="315.5" as="sourcePoint" />
            <mxPoint x="437" y="215.5" as="targetPoint" />
          </mxGeometry>
        </mxCell>
        <mxCell id="10" value="About" style="rounded=1;fillColor=#23445D;gradientColor=none;strokeColor=none;fontColor=#FFFFFF;fontStyle=1;fontFamily=Tahoma;fontSize=14" parent="1" vertex="1">
          <mxGeometry x="947" y="335.5" width="190" height="80" as="geometry" />
        </mxCell>
        <mxCell id="12" value="Cryptocurrencies" style="rounded=1;fillColor=#23445D;gradientColor=none;strokeColor=none;fontColor=#FFFFFF;fontStyle=1;fontFamily=Tahoma;fontSize=14" parent="1" vertex="1">
          <mxGeometry x="561.9999999999999" y="335.5" width="190" height="80" as="geometry" />
        </mxCell>
        <mxCell id="13" value="Portfolio" style="rounded=1;fillColor=#23445D;gradientColor=none;strokeColor=none;fontColor=#FFFFFF;fontStyle=1;fontFamily=Tahoma;fontSize=14" parent="1" vertex="1">
          <mxGeometry x="107" y="335.5" width="190" height="80" as="geometry" />
        </mxCell>
        <mxCell id="14" value="Performance&#xa;Tracker" style="rounded=1;fillColor=#23445D;gradientColor=none;strokeColor=none;fontColor=#FFFFFF;fontStyle=1;fontFamily=Tahoma;fontSize=14" parent="1" vertex="1">
          <mxGeometry x="57" y="455.5" width="130" height="60" as="geometry" />
        </mxCell>
        <mxCell id="16" value="Add Wallet" style="rounded=1;fillColor=#23445D;gradientColor=none;strokeColor=none;fontColor=#FFFFFF;fontStyle=1;fontFamily=Tahoma;fontSize=14" parent="1" vertex="1">
          <mxGeometry x="237" y="455.5" width="130" height="60" as="geometry" />
        </mxCell>
        <mxCell id="17" value="Add Exchange" style="rounded=1;fillColor=#23445D;gradientColor=none;strokeColor=none;fontColor=#FFFFFF;fontStyle=1;fontFamily=Tahoma;fontSize=14" parent="1" vertex="1">
          <mxGeometry x="237" y="545.5" width="130" height="60" as="geometry" />
        </mxCell>
        <mxCell id="18" value="Manual Add" style="rounded=1;fillColor=#23445D;gradientColor=none;strokeColor=none;fontColor=#FFFFFF;fontStyle=1;fontFamily=Tahoma;fontSize=14" parent="1" vertex="1">
          <mxGeometry x="237" y="635.5" width="130" height="60" as="geometry" />
        </mxCell>
        <mxCell id="25" value="Cryptocurrencies" style="rounded=1;fillColor=#23445D;gradientColor=none;strokeColor=none;fontColor=#FFFFFF;fontStyle=1;fontFamily=Tahoma;fontSize=14" parent="1" vertex="1">
          <mxGeometry x="417" y="455.5" width="130" height="60" as="geometry" />
        </mxCell>
        <mxCell id="29" value="Exchanges" style="rounded=1;fillColor=#23445D;gradientColor=none;strokeColor=none;fontColor=#FFFFFF;fontStyle=1;fontFamily=Tahoma;fontSize=14" parent="1" vertex="1">
          <mxGeometry x="592" y="455.5" width="130" height="60" as="geometry" />
        </mxCell>
        <mxCell id="33" value="Favorites" style="rounded=1;fillColor=#23445D;gradientColor=none;strokeColor=none;fontColor=#FFFFFF;fontStyle=1;fontFamily=Tahoma;fontSize=14" parent="1" vertex="1">
          <mxGeometry x="767" y="455.5" width="130" height="60" as="geometry" />
        </mxCell>
        <mxCell id="41" value="FAQ" style="rounded=1;fillColor=#23445D;gradientColor=none;strokeColor=none;fontColor=#FFFFFF;fontStyle=1;fontFamily=Tahoma;fontSize=14" parent="1" vertex="1">
          <mxGeometry x="977" y="455.5" width="130" height="60" as="geometry" />
        </mxCell>
        <mxCell id="42" value="Contact" style="rounded=1;fillColor=#23445D;gradientColor=none;strokeColor=none;fontColor=#FFFFFF;fontStyle=1;fontFamily=Tahoma;fontSize=14" parent="1" vertex="1">
          <mxGeometry x="977" y="545.5" width="130" height="60" as="geometry" />
        </mxCell>
        <mxCell id="59" value="" style="edgeStyle=elbowEdgeStyle;elbow=vertical;strokeWidth=2;rounded=0" parent="1" source="2" target="12" edge="1">
          <mxGeometry x="347" y="225.5" width="100" height="100" as="geometry">
            <mxPoint x="861.9999999999999" y="275.5" as="sourcePoint" />
            <mxPoint x="1466.9999999999998" y="345.5" as="targetPoint" />
          </mxGeometry>
        </mxCell>
        <mxCell id="61" value="" style="edgeStyle=elbowEdgeStyle;elbow=vertical;strokeWidth=2;rounded=0" parent="1" source="2" target="13" edge="1">
          <mxGeometry x="-23" y="135.5" width="100" height="100" as="geometry">
            <mxPoint x="-23" y="235.5" as="sourcePoint" />
            <mxPoint x="77" y="135.5" as="targetPoint" />
          </mxGeometry>
        </mxCell>
        <mxCell id="62" value="" style="edgeStyle=elbowEdgeStyle;elbow=vertical;strokeWidth=2;rounded=0" parent="1" source="13" target="14" edge="1">
          <mxGeometry x="-23" y="135.5" width="100" height="100" as="geometry">
            <mxPoint x="-23" y="235.5" as="sourcePoint" />
            <mxPoint x="77" y="135.5" as="targetPoint" />
          </mxGeometry>
        </mxCell>
        <mxCell id="64" value="" style="edgeStyle=elbowEdgeStyle;elbow=horizontal;strokeWidth=2;rounded=0" parent="1" source="13" target="16" edge="1">
          <mxGeometry x="-23" y="135.5" width="100" height="100" as="geometry">
            <mxPoint x="-23" y="235.5" as="sourcePoint" />
            <mxPoint x="77" y="135.5" as="targetPoint" />
            <Array as="points">
              <mxPoint x="202" y="435.5" />
            </Array>
          </mxGeometry>
        </mxCell>
        <mxCell id="65" value="" style="edgeStyle=elbowEdgeStyle;elbow=horizontal;strokeWidth=2;rounded=0" parent="1" source="13" target="17" edge="1">
          <mxGeometry x="-23" y="135.5" width="100" height="100" as="geometry">
            <mxPoint x="-23" y="235.5" as="sourcePoint" />
            <mxPoint x="77" y="135.5" as="targetPoint" />
            <Array as="points">
              <mxPoint x="202" y="475.5" />
            </Array>
          </mxGeometry>
        </mxCell>
        <mxCell id="66" value="" style="edgeStyle=elbowEdgeStyle;elbow=horizontal;strokeWidth=2;rounded=0" parent="1" source="13" target="18" edge="1">
          <mxGeometry x="-23" y="135.5" width="100" height="100" as="geometry">
            <mxPoint x="-23" y="235.5" as="sourcePoint" />
            <mxPoint x="77" y="135.5" as="targetPoint" />
            <Array as="points">
              <mxPoint x="202" y="525.5" />
            </Array>
          </mxGeometry>
        </mxCell>
        <mxCell id="82" value="" style="edgeStyle=elbowEdgeStyle;elbow=horizontal;strokeWidth=2;rounded=0" parent="1" source="41" target="42" edge="1">
          <mxGeometry x="-23" y="135.5" width="100" height="100" as="geometry">
            <mxPoint x="-23" y="235.5" as="sourcePoint" />
            <mxPoint x="77" y="135.5" as="targetPoint" />
            <Array as="points">
              <mxPoint x="957" y="535.5" />
            </Array>
          </mxGeometry>
        </mxCell>
        <mxCell id="84" value="" style="edgeStyle=elbowEdgeStyle;elbow=horizontal;strokeWidth=2;rounded=0" parent="1" target="45" edge="1">
          <mxGeometry x="-23" y="135.5" width="100" height="100" as="geometry">
            <mxPoint x="1217" y="485.5" as="sourcePoint" />
            <mxPoint x="77" y="135.5" as="targetPoint" />
            <Array as="points">
              <mxPoint x="1197" y="545.5" />
            </Array>
          </mxGeometry>
        </mxCell>
        <mxCell id="85" value="" style="edgeStyle=elbowEdgeStyle;elbow=horizontal;strokeWidth=2;rounded=0" parent="1" target="46" edge="1">
          <mxGeometry x="-23" y="135.5" width="100" height="100" as="geometry">
            <mxPoint x="1217" y="485.5" as="sourcePoint" />
            <mxPoint x="77" y="135.5" as="targetPoint" />
            <Array as="points">
              <mxPoint x="1197" y="575.5" />
            </Array>
          </mxGeometry>
        </mxCell>
        <mxCell id="86" value="" style="edgeStyle=elbowEdgeStyle;elbow=horizontal;strokeWidth=2;rounded=0" parent="1" target="47" edge="1">
          <mxGeometry x="-23" y="135.5" width="100" height="100" as="geometry">
            <mxPoint x="1217" y="485.5" as="sourcePoint" />
            <mxPoint x="77" y="135.5" as="targetPoint" />
            <Array as="points">
              <mxPoint x="1197" y="625.5" />
            </Array>
          </mxGeometry>
        </mxCell>
        <mxCell id="100" value="" style="edgeStyle=elbowEdgeStyle;elbow=vertical;strokeWidth=2;rounded=0" parent="1" source="12" target="25" edge="1">
          <mxGeometry x="-23" y="135.5" width="100" height="100" as="geometry">
            <mxPoint x="-23" y="235.5" as="sourcePoint" />
            <mxPoint x="77" y="135.5" as="targetPoint" />
          </mxGeometry>
        </mxCell>
        <mxCell id="101" value="" style="edgeStyle=elbowEdgeStyle;elbow=vertical;strokeWidth=2;rounded=0" parent="1" source="12" target="29" edge="1">
          <mxGeometry x="-23" y="135.5" width="100" height="100" as="geometry">
            <mxPoint x="-23" y="235.5" as="sourcePoint" />
            <mxPoint x="77" y="135.5" as="targetPoint" />
          </mxGeometry>
        </mxCell>
        <mxCell id="102" value="" style="edgeStyle=elbowEdgeStyle;elbow=vertical;strokeWidth=2;rounded=0" parent="1" source="12" target="33" edge="1">
          <mxGeometry x="-23" y="135.5" width="100" height="100" as="geometry">
            <mxPoint x="-23" y="235.5" as="sourcePoint" />
            <mxPoint x="77" y="135.5" as="targetPoint" />
          </mxGeometry>
        </mxCell>
        <mxCell id="103" value="" style="edgeStyle=elbowEdgeStyle;elbow=vertical;strokeWidth=2;rounded=0" parent="1" source="10" target="41" edge="1">
          <mxGeometry x="-23" y="135.5" width="100" height="100" as="geometry">
            <mxPoint x="-23" y="235.5" as="sourcePoint" />
            <mxPoint x="77" y="135.5" as="targetPoint" />
          </mxGeometry>
        </mxCell>
        <mxCell id="D9Re8PgREqhc5-vSee3s-124" value="" style="edgeStyle=elbowEdgeStyle;elbow=vertical;strokeWidth=2;rounded=0" edge="1" parent="1">
          <mxGeometry x="-23" y="135.5" width="100" height="100" as="geometry">
            <mxPoint x="1042" y="300" as="sourcePoint" />
            <mxPoint x="1041.55" y="335.5" as="targetPoint" />
          </mxGeometry>
        </mxCell>
      </root>
    </mxGraphModel>
  </diagram>
</mxfile>
